{"title":"The Oracle (2008) [BluRay 1080px264][Dual][English &amp; Russian]","uid":5497651,"size":7086703113,"categoryP":"porn","categoryS":"hd___movies","magnet":"?xt=urn:btih:fdbf3183ae39d8ae35248fdf12f4b50c78d603b6&amp;dn=The+Oracle+%282008%29+%5BBluRay+1080px264%5D%5BDual%5D%5BEnglish+%26+Russian%5D&amp;tr=udp%3A%2F%2Ftracker.openbittorrent.com%3A80&amp;tr=udp%3A%2F%2Fopen.demonii.com%3A1337&amp;tr=udp%3A%2F%2Ftracker.coppersurfer.tk%3A6969&amp;tr=udp%3A%2F%2Fexodus.desync.com%3A6969","seeders":0,"leechers":2,"uploader":"webchella","files":1,"time":1271363237,"description":"The Oracle (2008) [BluRay 1080px264][Dual][English &amp; Russian]\n &lt;a href=&quot;\nhttp://www.jadedvideo.com/Wicked/Oracle_Blu_Ray.5-48484.html&quot; rel=&quot;nofollow&quot; target=&quot;_NEW&quot;&gt;\nhttp://www.jadedvideo.com/Wicked/Oracle_Blu_Ray.5-48484.html&lt;/a&gt; &lt;a href=&quot;\nhttp://www.adultdvdfree.com/catalog/product_info.php/products_id/46387&quot; rel=&quot;nofollow&quot; target=&quot;_NEW&quot;&gt;\nhttp://www.adultdvdfree.com/catalog/product_info.php/products_id/46387&lt;/a&gt; &lt;a href=&quot;\nhttp://www.adultdvdempire.com/1440763/oracle-the-porn-movies.html?partner_id=42023867&quot; rel=&quot;nofollow&quot; target=&quot;_NEW&quot;&gt;\nhttp://www.adultdvdempire.com/1440763/oracle-the-porn-movies.html?partner_id=42023867&lt;/a&gt;\n\nStudio  Wicked Pictures \nRelease Date  Dec 13, 2008 \nCategory  Feature, HD - Shot In High Def, Couples, Blu-ray \nDirector  Francois Clousot \nStarring  Eva Angelina, Roxy Deville, Kaylani Lei, Brooke Haven, India Summers, Derrick Pierce, Brooke Banner, Marcus London, Ryder Skye, Randy Spears, Chris Cannon, Barrett Blade \n\nShe Knows All!\n\nThe Oracle, an amulet with the power to control the dead, or is it the dead who control the amulet? Cassie (Kaylani Lei) is about to find out after she stumbles into the clutches of the amulet. This young swindler, working ...    Full Descriptionwith her sometimes boyfriend, cons people into thinking she's a fortune teller. As long as she uses The Oracle for positive things, all is well. But when her boyfriend attempts to use it in their cons, unspeakable things begin to happen. Eventually Cassie learns to harness its powers to explore her sexuality and discovers a new life on the other side...   \n\n\n\nComplete name : The Oracle 1080p BluRay x264.mkv\nFormat : Matroska\nFile size : 6.60 GiB\nDuration : 1h 25mn\nOverall bit rate : 11.1 Mbps\n\nVideo\nID : 1\nFormat : AVC\nFormat/Info : Advanced Video Codec\nDuration : 1h 25mn\nBit rate : 10.3 Mbps\nNominal bit rate : 10.5 Mbps\nWidth : 1 920 pixels\nHeight : 1 080 pixels\nDisplay aspect ratio : 16:9\nFrame rate : 23.976 fps\nResolution : 8 bits\nColorimetry : 4:2:0\nScan type : Progressive\nBits/(Pixel*Frame) : 0.207\nStream size : 6.12 GiB (93%)\n\nAudio #1\nID : 2\nFormat : AC-3\nFormat/Info : Audio Coding 3\nCodec ID : A_AC3\nDuration : 1h 25mn\nBit rate mode : Constant\nBit rate : 192 Kbps\nChannel(s) : 2 channels\nChannel positions : Front: L R\nSampling rate : 48.0 KHz\nStream size : 117 MiB (2%)\nLanguage : Russian\n\nAudio #2\nID : 3\nFormat : AC-3\nFormat/Info : Audio Coding 3\nCodec ID : A_AC3\nDuration : 1h 25mn\nBit rate mode : Constant\nBit rate : 384 Kbps\nChannel(s) : 6 channels\nChannel positions : Front: L C R, Side: L R, LFE\nSampling rate : 48.0 KHz\nStream size : 234 MiB (3%)\nLanguage : English ","torrent":{"xt":"urn:btih:fdbf3183ae39d8ae35248fdf12f4b50c78d603b6","amp;dn":"The+Oracle+%282008%29+%5BBluRay+1080px264%5D%5BDual%5D%5BEnglish+%26+Russian%5D","amp;tr":["udp%3A%2F%2Ftracker.openbittorrent.com%3A80","udp%3A%2F%2Fopen.demonii.com%3A1337","udp%3A%2F%2Ftracker.coppersurfer.tk%3A6969","udp%3A%2F%2Fexodus.desync.com%3A6969"],"infoHash":"fdbf3183ae39d8ae35248fdf12f4b50c78d603b6","infoHashBuffer":{"type":"Buffer","data":[253,191,49,131,174,57,216,174,53,36,143,223,18,244,181,12,120,214,3,182]},"announce":[],"urlList":[]}}